<svg xmlns="http://www.w3.org/2000/svg" xmlns:xlink="http://www.w3.org/1999/xlink" id="Layer_1" x="0" y="0" version="1.1" viewBox="0 0 50 31" style="enable-background:new 0 0 50 31" xml:space="preserve"><style type="text/css">.st0{stroke:#000;stroke-width:.9793;stroke-miterlimit:10}</style><title>bumper</title><path d="M36.2,1.1c7.2,0,12.9,5.8,13,12.9c0,1-0.1,2-0.3,2.9c-1.7,7.6-8.5,12.9-16.2,12.9H17.4	C9.7,29.9,2.9,24.5,1.2,17C-0.4,10,3.9,3,10.9,1.4c1-0.2,1.9-0.3,2.9-0.3H36.2 M36.2,0.8H13.8C6.5,0.8,0.6,6.7,0.6,14.1	c0,1,0.1,2,0.3,3l0,0c1.8,7.7,8.6,13.2,16.5,13.2h15.2c7.9,0,14.8-5.5,16.6-13.2l0,0c1.6-7.1-2.8-14.2-9.9-15.9	C38.2,0.9,37.2,0.8,36.2,0.8z" class="st0"/></svg>