<svg xmlns="http://www.w3.org/2000/svg" xmlns:xlink="http://www.w3.org/1999/xlink" id="Layer_1" x="0" y="0" version="1.1" viewBox="0 0 50 42.4" style="enable-background:new 0 0 50 42.4" xml:space="preserve"><style type="text/css">.st0{stroke:#000;stroke-width:.9735;stroke-miterlimit:10}</style><title>trigger</title><path d="M25,1.2c9.4,0,17.6,6.4,19.9,15.6l3.9,15.6c1,3.9-1.4,7.8-5.3,8.8c-0.6,0.1-1.2,0.2-1.7,0.2H8.3	c-4,0-7.3-3.3-7.3-7.3c0-0.6,0.1-1.2,0.2-1.7l3.9-15.6C7.3,7.6,15.5,1.2,25,1.2L25,1.2 M25,0.9L25,0.9c-9.7,0-18,6.5-20.3,15.8	L0.9,32.3c-1,4.1,1.5,8.2,5.6,9.2c0.6,0.1,1.2,0.2,1.8,0.2h33.5c4.2,0,7.6-3.4,7.6-7.6c0-0.6-0.1-1.2-0.2-1.8l-3.9-15.6	C42.9,7.4,34.6,0.9,25,0.9z" class="st0"/></svg>